# xmcd
#
# Track frame offsets: 
#        182
#        18320
#        34082
#        54720
#        67882
#        87120
#        106432
#        119445
#        138345
#        154395
#        169307
#        183007
#        199820
#        207345
#        228357
#        245520
#        260657
#        281220
#        297695
#        315845
#
# Disc length: 4374 seconds
#
# Revision: 5
# Processed by: cddbd v1.4PL0 Copyright (c) Steve Scherf et al.
# Submitted via: ExactAudioCopy v0.90b3
#
DISCID=29111414
DTITLE=John Denver - Two Different Directions CD 2
DYEAR=1995
DGENRE=Country
TTITLE0=Windsong
TTITLE1=Rocky Mountain Suite
TTITLE2=Eclipse
TTITLE3=The Flower that Shattered the Stone
TTITLE4=Raven's Child
TTITLE5=To the Wild Country
TTITLE6=American Child
TTITLE7=Islands
TTITLE8=Higher Ground
TTITLE9=Home Grown Tomatoes
TTITLE10=Whispering Jesse
TTITLE11=Never a Doubt
TTITLE12=Deal with the Ladies
TTITLE13=Sing Australia
TTITLE14=Country Girl in Paris
TTITLE15=For You
TTITLE16=All this Joy
TTITLE17=Falling Leaves
TTITLE18=Bread and Roses
TTITLE19=Alaska and Me
EXTD=
EXTT0=
EXTT1=
EXTT2=
EXTT3=
EXTT4=
EXTT5=
EXTT6=
EXTT7=
EXTT8=
EXTT9=
EXTT10=
EXTT11=
EXTT12=
EXTT13=
EXTT14=
EXTT15=
EXTT16=
EXTT17=
EXTT18=
EXTT19=
PLAYORDER=
